<svg width="1345" height="347" viewBox="0 0 1345 347" fill="none" xmlns="http://www.w3.org/2000/svg">
<path d="M-9.76026e-05 129.6V0.899985H24.1199L83.6999 42.66H84.5999L144.18 0.899985H168.3V129.6H139.5V36.9L98.6399 64.26V129.6H69.8399V64.26L28.7999 36.9V129.6H-9.76026e-05ZM249.155 129.6V83.7L180.935 0.899985H216.575L263.555 59.22L310.355 0.899985H345.995L278.135 83.52V129.6H249.155ZM673.242 129.6V1.25998L781.602 0.899985C795.882 0.899985 806.442 3.89999 813.282 9.89999C820.242 15.78 823.722 24.66 823.722 36.54C823.722 48.42 819.762 57.12 811.842 62.64C817.122 65.52 821.022 69.36 823.542 74.16C826.062 78.84 827.322 84.9 827.322 92.34C827.322 104.46 823.842 113.7 816.882 120.06C810.042 126.3 799.482 129.42 785.202 129.42L673.242 129.6ZM778.182 23.94H702.042V52.74H778.182C789.102 52.74 794.562 47.82 794.562 37.98C794.562 28.62 789.102 23.94 778.182 23.94ZM781.782 75.78H702.042V106.38H781.782C792.702 106.38 798.162 101.22 798.162 90.9C798.162 80.82 792.702 75.78 781.782 75.78ZM912.07 130.5C889.15 130.5 871.39 125.04 858.79 114.12C846.19 103.08 839.89 86.76 839.89 65.16C839.89 43.68 846.19 27.48 858.79 16.56C871.39 5.51999 889.57 -1.43051e-05 913.33 -1.43051e-05H945.73C969.49 -1.43051e-05 987.67 5.51999 1000.27 16.56C1012.87 27.48 1019.17 43.68 1019.17 65.16C1019.17 86.76 1012.87 103.08 1000.27 114.12C987.67 125.04 969.79 130.5 946.63 130.5H912.07ZM915.31 23.4C901.99 23.4 891.61 25.8 884.17 30.6C876.73 35.4 872.05 43.02 870.13 53.46H988.93C987.01 43.02 982.33 35.4 974.89 30.6C967.45 25.8 957.07 23.4 943.75 23.4H915.31ZM915.85 107.1H943.75C957.19 107.1 967.57 104.7 974.89 99.9C982.33 95.1 987.01 87.42 988.93 76.86H870.13C872.05 87.42 876.73 95.1 884.17 99.9C891.61 104.7 902.17 107.1 915.85 107.1ZM1032.97 130.5V107.1L1136.47 107.28C1141.75 107.28 1145.77 106.08 1148.53 103.68C1151.41 101.16 1152.85 97.14 1152.85 91.62C1152.85 86.1 1151.41 82.14 1148.53 79.74C1145.77 77.22 1141.75 75.96 1136.47 75.96H1072.03C1058.71 75.96 1048.33 72.78 1040.89 66.42C1033.57 59.94 1029.91 50.46 1029.91 37.98C1029.91 25.5 1033.57 16.08 1040.89 9.71999C1048.33 3.23999 1058.71 -1.43051e-05 1072.03 -1.43051e-05H1173.19V23.4L1075.09 23.22C1069.93 23.22 1065.91 24.42 1063.03 26.82C1060.15 29.1 1058.71 32.82 1058.71 37.98C1058.71 43.14 1060.15 46.92 1063.03 49.32C1065.91 51.6 1069.93 52.74 1075.09 52.74H1139.53C1152.85 52.74 1163.17 56.04 1170.49 62.64C1177.93 69.12 1181.65 78.78 1181.65 91.62C1181.65 104.34 1177.93 114 1170.49 120.6C1163.17 127.2 1152.85 130.5 1139.53 130.5H1032.97ZM1195.57 130.5V107.1L1299.07 107.28C1304.35 107.28 1308.37 106.08 1311.13 103.68C1314.01 101.16 1315.45 97.14 1315.45 91.62C1315.45 86.1 1314.01 82.14 1311.13 79.74C1308.37 77.22 1304.35 75.96 1299.07 75.96H1234.63C1221.31 75.96 1210.93 72.78 1203.49 66.42C1196.17 59.94 1192.51 50.46 1192.51 37.98C1192.51 25.5 1196.17 16.08 1203.49 9.71999C1210.93 3.23999 1221.31 -1.43051e-05 1234.63 -1.43051e-05H1335.79V23.4L1237.69 23.22C1232.53 23.22 1228.51 24.42 1225.63 26.82C1222.75 29.1 1221.31 32.82 1221.31 37.98C1221.31 43.14 1222.75 46.92 1225.63 49.32C1228.51 51.6 1232.53 52.74 1237.69 52.74H1302.13C1315.45 52.74 1325.77 56.04 1333.09 62.64C1340.53 69.12 1344.25 78.78 1344.25 91.62C1344.25 104.34 1340.53 114 1333.09 120.6C1325.77 127.2 1315.45 130.5 1302.13 130.5H1195.57ZM264.366 346.5V323.1L367.866 323.28C373.146 323.28 377.166 322.08 379.926 319.68C382.806 317.16 384.246 313.14 384.246 307.62C384.246 302.1 382.806 298.14 379.926 295.74C377.166 293.22 373.146 291.96 367.866 291.96H303.426C290.106 291.96 279.726 288.78 272.286 282.42C264.966 275.94 261.306 266.46 261.306 253.98C261.306 241.5 264.966 232.08 272.286 225.72C279.726 219.24 290.106 216 303.426 216H404.586V239.4L306.486 239.22C301.326 239.22 297.306 240.42 294.426 242.82C291.546 245.1 290.106 248.82 290.106 253.98C290.106 259.14 291.546 262.92 294.426 265.32C297.306 267.6 301.326 268.74 306.486 268.74H370.926C384.246 268.74 394.566 272.04 401.886 278.64C409.326 285.12 413.046 294.78 413.046 307.62C413.046 320.34 409.326 330 401.886 336.6C394.566 343.2 384.246 346.5 370.926 346.5H264.366ZM431.103 345.6V217.26H459.903V269.64H502.743L545.043 217.26H580.863L527.943 281.34L580.863 345.6H545.043L502.563 293.04H459.903V345.6H431.103ZM595.283 345.6V216.9H624.083V345.6H595.283ZM649.248 345.6V216.9H678.048V322.2H772.188V345.6H649.248ZM790.225 345.6V216.9H819.025V322.2H913.165V345.6H790.225ZM927.061 346.5V323.1L1030.56 323.28C1035.84 323.28 1039.86 322.08 1042.62 319.68C1045.5 317.16 1046.94 313.14 1046.94 307.62C1046.94 302.1 1045.5 298.14 1042.62 295.74C1039.86 293.22 1035.84 291.96 1030.56 291.96H966.121C952.801 291.96 942.421 288.78 934.981 282.42C927.661 275.94 924.001 266.46 924.001 253.98C924.001 241.5 927.661 232.08 934.981 225.72C942.421 219.24 952.801 216 966.121 216H1067.28V239.4L969.181 239.22C964.021 239.22 960.001 240.42 957.121 242.82C954.241 245.1 952.801 248.82 952.801 253.98C952.801 259.14 954.241 262.92 957.121 265.32C960.001 267.6 964.021 268.74 969.181 268.74H1033.62C1046.94 268.74 1057.26 272.04 1064.58 278.64C1072.02 285.12 1075.74 294.78 1075.74 307.62C1075.74 320.34 1072.02 330 1064.58 336.6C1057.26 343.2 1046.94 346.5 1033.62 346.5H927.061Z" fill="black"/>
</svg>
